{"title":"Phil Karlson - Kansas City Confidential (1952)","uid":6278911,"size":1786541066,"categoryP":"video","categoryS":"hd___movies","magnet":"?xt=urn:btih:843d36f3895cb15874c25c8b94c44049066d2e93&amp;dn=Phil+Karlson+-+Kansas+City+Confidential+%281952%29&amp;tr=udp%3A%2F%2Ftracker.openbittorrent.com%3A80&amp;tr=udp%3A%2F%2Fopen.demonii.com%3A1337&amp;tr=udp%3A%2F%2Ftracker.coppersurfer.tk%3A6969&amp;tr=udp%3A%2F%2Fexodus.desync.com%3A6969","seeders":1,"leechers":0,"uploader":"mfccorrea","files":2,"time":1301364204,"description":"Kansas City Confidential, Phil Karlson's low (low) budget, B-grade film noir, opens on a Kansas City armored-car robbery perpetrated by cynical, corrupt ex-policeman Timothy Foster (Preston S. Foster). Foster devises an outrageous scheme: he will recruit three of the most vicious and unrelenting criminals he can find (screen heavies Lee Van Cleef, Jack Elam and Neville Brand) to undertake a robbery, blackmailing them into the heist with incriminating evidence from other &quot;jobs.&quot; As an eccentric and clever conceit, Foster forces each of the perpetrators to wear masks, thus concealing their identities from one another and preventing the old pitfall of the men squealing and backstabbing. The heist comes off without a scratch, but a complication arises when the ignorant cops pick up an unrelated fellow, Joe Rolfe (John Payne) for his ownership of a van similar to the one used in the caper. In time, Rolfe is cleared, but he grows irate over the accusations and sets off to find Foster and co. and teach them a lesson. He finally happens upon one of the perpetrators in Mexico, beats him nearly to death, and assumes the victim's identity - and that's when things really get complicated. Though produced under the Hays Code censorship regulations, Kansas City Confidential constituted one of the most brutal and violent crime pictures made up through that time; as such, it retains historical significance. It also claims a strong cult following. \n\n   General\n      Complete name : Kansas City Confidential.mkv\n      Format : Matroska\n      File size : 1.66 GiB\n      Duration : 1h 39mn\n      Overall bit rate : 2 399 Kbps\n      Movie name : Kansas.City.Confidential.1952.720p.BRRip.x264-x0r\n      Encoded date : UTC 2011-03-08 19:43:33\n      Writing application : mkvmerge v2.9.7 ('Tenderness') built on Jul  5 2009 13:26:28\n      Writing library : libebml v0.7.8 + libmatroska v0.8.1\n   Video #1\n      ID : 1\n      Format : AVC\n      Format/Info : Advanced Video Codec\n      Format profile : &lt;a class=&quot;__cf_email__&quot; href=&quot;/cdn-cgi/l/email-protection&quot; data-cfemail=&quot;ca82a3ada28a86fee4fb&quot;&gt;[email&amp;#160;protected]&lt;/a&gt;&lt;script cf-hash='f9e31' type=&quot;text/javascript&quot;&gt;\n/* &lt;![CDATA[ */!function(){try{var t=&quot;currentScript&quot;in document?document.currentScript:function(){for(var t=document.getElementsByTagName(&quot;script&quot;),e=t.length;e--;)if(t[e].getAttribute(&quot;cf-hash&quot;))return t[e]}();if(t&amp;&amp;t.previousSibling){var e,r,n,i,c=t.previousSibling,a=c.getAttribute(&quot;data-cfemail&quot;);if(a){for(e=&quot;&quot;,r=parseInt(a.substr(0,2),16),n=2;a.length-n;n+=2)i=parseInt(a.substr(n,2),16)^r,e+=String.fromCharCode(i);e=document.createTextNode(e),c.parentNode.replaceChild(e,c)}}}catch(u){}}();/* ]]&gt; */&lt;/script&gt;\n      Format settings, CABAC : Yes\n      Format settings, ReFrames : 5 frames\n      Muxing mode : Container profile=&lt;a class=&quot;__cf_email__&quot; href=&quot;/cdn-cgi/l/email-protection&quot; data-cfemail=&quot;da8fb4b1b4b5adb49aeef4eb&quot;&gt;[email&amp;#160;protected]&lt;/a&gt;&lt;script cf-hash='f9e31' type=&quot;text/javascript&quot;&gt;\n/* &lt;![CDATA[ */!function(){try{var t=&quot;currentScript&quot;in document?document.currentScript:function(){for(var t=document.getElementsByTagName(&quot;script&quot;),e=t.length;e--;)if(t[e].getAttribute(&quot;cf-hash&quot;))return t[e]}();if(t&amp;&amp;t.previousSibling){var e,r,n,i,c=t.previousSibling,a=c.getAttribute(&quot;data-cfemail&quot;);if(a){for(e=&quot;&quot;,r=parseInt(a.substr(0,2),16),n=2;a.length-n;n+=2)i=parseInt(a.substr(n,2),16)^r,e+=String.fromCharCode(i);e=document.createTextNode(e),c.parentNode.replaceChild(e,c)}}}catch(u){}}();/* ]]&gt; */&lt;/script&gt;\n      Codec ID : V_MPEG4/ISO/AVC\n      Duration : 1h 39mn\n      Bit rate : 1 904 Kbps\n      Nominal bit rate : 1 950 Kbps\n      Width : 950 pixels\n      Height : 720 pixels\n      Display aspect ratio : 4:3\n      Frame rate mode : Variable\n      Frame rate : 23.976 fps\n      Resolution : 24 bits\n      Colorimetry : 4:2:0\n      Scan type : Progressive\n      Bits/(Pixel*Frame) : 0.116\n      Stream size : 1.32 GiB (79%)\n      Writing library : x264 core 112\n   Audio #2\n      ID : 2\n      Format : AC-3\n      Format/Info : Audio Coding 3\n      Codec ID : A_AC3\n      Duration : 1h 39mn\n      Bit rate mode : Constant\n      Bit rate : 448 Kbps\n      Channel(s) : 6 channels\n      Channel positions : Front: L C R, Surround: L R, LFE\n      Sampling rate : 48.0 KHz\n      Stream size : 318 MiB (19%)\n   Text #3\n      ID : 3\n      Format : UTF-8\n      Codec ID : S_TEXT/UTF8\n      Codec ID/Info : UTF-8 Plain Text\n      Language : English\n &lt;a href=&quot;\nhttp://www.imdb.com/title/tt0044789/&quot; rel=&quot;nofollow&quot; target=&quot;_NEW&quot;&gt;\nhttp://www.imdb.com/title/tt0044789/&lt;/a&gt;\n\nEnglish audio; English (muxed in mkv) and Portuguese subtitles\n\nPhil Karlson - Kansas City Confidential (1952)","torrent":{"xt":"urn:btih:843d36f3895cb15874c25c8b94c44049066d2e93","amp;dn":"Phil+Karlson+-+Kansas+City+Confidential+%281952%29","amp;tr":["udp%3A%2F%2Ftracker.openbittorrent.com%3A80","udp%3A%2F%2Fopen.demonii.com%3A1337","udp%3A%2F%2Ftracker.coppersurfer.tk%3A6969","udp%3A%2F%2Fexodus.desync.com%3A6969"],"infoHash":"843d36f3895cb15874c25c8b94c44049066d2e93","infoHashBuffer":{"type":"Buffer","data":[132,61,54,243,137,92,177,88,116,194,92,139,148,196,64,73,6,109,46,147]},"announce":[],"urlList":[]}}